PathFileType	4	(X/Y/Z)	Patient4_TMGait_0pt6_01_right_29.trc.trc
DataRate	CameraRate	NumFrames	NumMarkers	Units	OrigDataRate	OrigDataStartFrame	OrigNumFrames
82.352941176470	82.352941176470	6	33	mm	82.352941176470	53	       141
Frame#	Time	Sacral			L.Shoulder			Chest			R.Shoulder			Neck			R.ASIS			L.ASIS			R.Thigh.Superior			R.Thigh.Lateral			R.Thigh.Inferior			R.Patella			L.Thigh.Superior			L.Thigh.Lateral			L.Thigh.Inferior			L.Patella			L.Shank.Superior			L.Shank.Lateral			L.Shank.Inferior			R.Shank.Superior			R.Shank.Lateral			R.Shank.Inferior			R.Heel			R.Midfoot.Superior			R.Midfoot.Lateral			R.Toe			L.Heel			L.Midfoot.Lateral			L.Midfoot.Superior			L.Toe			L.Elbow			L.Wrist			R.Elbow			R.Wrist			
		X1	Y1	Z1	X2	Y2	Z2	X3	Y3	Z3	X4	Y4	Z4	X5	Y5	Z5	X6	Y6	Z6	X7	Y7	Z7	X8	Y8	Z8	X9	Y9	Z9	X10	Y10	Z10	X11	Y11	Z11	X12	Y12	Z12	X13	Y13	Z13	X14	Y14	Z14	X15	Y15	Z15	X16	Y16	Z16	X17	Y17	Z17	X18	Y18	Z18	X19	Y19	Z19	X20	Y20	Z20	X21	Y21	Z21	X22	Y22	Z22	X23	Y23	Z23	X24	Y24	Z24	X25	Y25	Z25	X26	Y26	Z26	X27	Y27	Z27	X28	Y28	Z28	X29	Y29	Z29	X30	Y30	Z30	X31	Y31	Z31	X32	Y32	Z32	X33	Y33	Z33	

53	35.321428571429	728.787045464569	1009.965909600079	530.380302582057	868.927747311255	1441.830888654494	341.825786037150	997.349281537878	1372.305626142461	482.956680943123	941.089600739670	1437.719849251115	669.778546187635	874.991758550345	1498.826416053959	497.838673851700	965.456749685823	945.122658243318	622.155325750395	923.691080288256	969.024783377239	351.359100872637	985.382008130984	737.697069361802	588.823705769898	897.397956311853	633.877083077322	652.004327815847	963.350733187037	576.820028131856	567.758940374538	955.217891992287	490.398401745182	571.242862894876	1016.095435853755	791.303232442651	375.374983246500	972.186009147586	662.182698266800	300.347589366228	1082.275444680345	605.548329445387	351.946359866538	1102.617509258476	521.394121596072	344.396548024369	1052.908180069899	446.011317895351	340.625280576174	926.480348857716	366.905386500536	298.621646812266	953.859208289286	239.310705572013	352.602753598451	925.839225119320	403.302518657983	576.935409094058	853.265115137017	299.751219216431	636.059344090491	891.999987900673	206.035370029497	569.151140572529	754.103939706170	42.576177303461	534.595353874516	925.765429300399	96.759635928326	571.091829078995	837.197889038535	36.489960187153	609.542175041160	1045.380652012517	44.177543646047	598.373849927456	792.208537859212	121.293015648092	400.105759475786	854.339201450333	98.311490807623	314.241511587622	953.671439863793	135.824976207114	330.274428974899	1057.898998227441	53.435082904621	291.632397686237	804.586173306102	1087.311493558744	238.606159201663	836.292769378805	829.221464712495	232.256840841652	1017.429802336977	1094.869588830765	783.956278381321	1241.557204806280	971.423013745998	741.524586387384	
54	35.333571428571	727.364750762252	1010.430875585734	531.786195456330	867.344804639531	1441.557761837199	342.267842185977	996.812859749090	1371.835260838744	482.336312700264	942.401671006751	1437.808892041099	669.491256639297	874.788400584494	1498.676587818166	497.976918898726	964.298707267742	944.630547256045	622.080273570049	921.260801083876	969.210362517133	351.442399296314	981.574017447989	736.798265158947	588.031836454640	893.181343337279	633.659829604062	652.256932341281	957.683183126886	576.051094201364	567.483551047472	948.833909823214	489.979269611058	571.095391650554	1014.286882884704	792.575856919967	376.269961629288	971.548881743140	663.189572918300	300.852428962145	1080.932281135523	606.926539876970	353.710370087445	1102.777904958927	524.691302321818	345.876836930815	1057.254775790286	448.474480248584	341.090599045959	936.750978681790	361.559853532416	297.821390856072	972.547452835203	235.553587913013	351.148850731077	919.323698336646	403.061502123868	576.864446961733	846.775533994822	299.587219997419	636.217437425798	884.958853208675	205.858447743361	569.037392044437	746.740423605018	42.562164621862	534.596568914983	918.336959165895	96.675252714692	571.028147322309	829.819157466615	36.453437380451	609.557702848149	1037.999784325713	44.099358490094	598.381816732728	819.387911158175	106.486180332042	397.249403734170	883.201879933393	88.344890503366	311.524790725257	979.643181675373	132.375464128380	328.238338449158	1089.322216977230	57.506411431242	289.636260302052	794.746600383372	1088.616752681084	240.162246305517	818.273473565363	829.776606533205	235.114386442471	1026.550212557979	1097.676594591448	783.966752963494	1257.148670831594	988.790220695169	738.465863335925	
55	35.345714285714	726.043093363561	1010.725814482620	533.042682539087	865.876530108182	1441.179842724161	342.601039938565	996.318866298875	1371.199481890539	481.637172738123	943.677204751927	1437.685831397260	669.101540341179	874.628156145078	1498.369704244764	498.052080540877	963.178101567707	944.035483819560	621.943622292262	918.947151704806	969.119855193757	351.425638833015	977.967201607166	735.850146414690	587.428609737987	889.114624577231	633.368574440213	652.531537787042	952.296563040777	575.262473086099	567.312877002048	942.727991147280	489.492392835600	571.030790728026	1012.129750234057	793.079986224946	377.080632374677	970.210281818493	663.613620203418	301.230613731388	1078.623451329186	607.374706060267	355.585515882175	1101.862826027296	527.313649193335	347.462184494843	1060.664356453272	450.667815987792	341.586045753726	946.892113558479	356.142362649868	296.922387643601	991.166129003521	232.411042500069	349.769258507592	913.010652281671	402.747841111693	576.836210603351	840.414595425690	299.386755374356	636.404491309849	877.976559800319	205.630809820265	568.944467573745	739.373967535971	42.544014801724	534.602777300360	910.901176260501	96.581118744497	570.956493320026	822.440380040337	36.417084896631	609.581481620794	1030.621939989525	44.000805803311	598.388928937235	847.473568676566	92.684815807021	394.372500750615	912.824323959767	79.515600311283	308.915800583211	1005.818752052263	129.976395514339	326.383405056936	1120.567174535859	63.070244298798	288.115798531668	785.156548247055	1090.022063869290	241.707114256236	800.949074378302	830.712659675189	237.985172090564	1035.392761062493	1100.443606766038	783.740469082330	1271.495290438188	1006.395266425281	735.283356798752	
56	35.357857142857	724.847602046685	1010.846198527937	534.148382486869	864.531862722043	1440.714759131494	342.817280441406	995.858520474987	1370.425964458505	480.873291922109	944.872034303628	1437.373915164176	668.618237390435	874.495556699837	1497.924843350337	498.054778440411	962.118826941784	943.354523748811	621.750275363031	916.764549006790	968.762933897788	351.319610033486	974.626113923092	734.862376752219	587.033955450284	885.233172907425	633.009481838443	652.813431061303	947.241490992773	574.458237103781	567.244781968629	936.938151503569	488.933072495379	571.027116041549	1009.628023458102	792.816599773749	377.781196101703	968.166575151704	663.471881578835	301.444689643564	1075.426463466685	606.949902383818	357.458645153841	1099.956254852933	529.287800282091	349.081824577493	1063.157957540217	452.629304771832	342.084930252156	956.839579207876	350.839976338858	295.937126162563	1009.481802732895	230.081217235017	348.523125973528	906.930193882671	402.356620010119	576.833652760268	834.202620961791	299.159341910553	636.607107494198	871.072437324462	205.354255527503	568.869104854509	732.005750467046	42.523095054041	534.618143608691	903.464922466924	96.479776159594	570.881230873758	815.064180950486	36.383552788333	609.617278460650	1023.251956950044	43.883790048189	598.397885624448	876.071021900972	80.314094613775	391.584093502821	942.828752807141	72.114779608978	306.547065174274	1031.866298022000	128.813255916220	324.807122008343	1151.226245406284	70.177093127681	287.243998496233	775.897882356159	1091.511145099906	243.254997511818	784.359043231687	831.970755683093	240.866443172501	1043.956276952039	1103.162911561210	783.256574295815	1284.568117137867	1024.060038572288	731.997751214299	
57	35.370000000000	723.796660264841	1010.796637585935	535.102898915429	863.313875057367	1440.182763951456	342.910669182140	995.423022287254	1369.550617996446	480.058817879271	945.945731168427	1436.908240078783	668.049892827055	874.372477625504	1497.367292499786	497.973947467384	961.146408660218	942.607444632465	621.497752189171	914.723239412783	968.168660176373	351.129974563208	971.599939621882	733.845093426998	586.834551834391	881.570534411238	632.590615754275	653.077864267279	942.552197923319	573.641958530966	567.256988260003	931.490056526571	488.299403947553	571.050515093791	1006.799993565618	791.826367016939	378.344890564102	965.449382406531	662.808569916825	301.466027308754	1071.466679875408	605.756477026430	359.213173830684	1097.181799436154	530.669674427899	350.667104874284	1064.787257012866	454.396939503283	342.560600438777	966.493268970238	345.820111011709	294.902783904992	1027.237744294970	228.692077626834	347.458414148860	901.103924588353	401.887775117677	576.832981765935	828.156008077807	298.916934103716	636.809183280321	864.261733791947	205.033137271118	568.804639570273	724.637554544616	42.502076124949	534.645604958196	896.035776622058	96.374372686588	570.807867511954	807.692854231956	36.354922790281	609.666753782006	1015.894652513262	43.750365454576	598.410211287434	904.699783288841	69.702623714620	389.005900470262	972.751304654320	66.318664869914	304.545435805633	1057.413986717055	128.962886525314	323.581313554168	1180.874439923442	78.726099353714	287.131662621809	767.049701694703	1093.064838577257	244.808391513247	768.546888911542	833.495378252475	243.751062205961	1052.232403423704	1105.838093666084	782.495159195837	1296.359483093664	1041.609815101297	728.631011720317	
58	35.382142857143	722.898910346852	1010.589890937475	535.905677149408	862.217289868108	1439.604338622907	342.878206101963	995.003189898053	1368.613942011356	479.205950331779	946.865097262615	1436.331250249045	667.403868508046	874.238433041256	1496.725535053025	497.798760508662	960.285877016256	941.814486707728	621.177030962211	912.830154595616	967.381656410610	350.856973902157	968.919530034648	732.808043701324	586.785703068027	878.157117961106	632.121370379112	653.292870496264	938.244719631055	572.815796321521	567.309081898545	926.396817147454	487.592027740100	571.059472357812	1003.687181289513	790.191127725164	378.744444714122	962.131097878377	661.690085953604	301.284533256772	1066.917282445176	603.938154408895	360.741546743298	1093.703010337065	531.537423122904	352.154558324273	1065.632681344479	456.000541664109	342.987022645095	975.712290667641	341.218815718169	293.885127492172	1044.157556279843	228.284952427145	346.606709352654	895.545138583373	401.345595422797	576.807091774498	822.286816319947	298.672908988546	636.994061317978	857.555077546811	204.674064846413	568.742543107298	717.271688548970	42.485275146681	534.686993592720	888.621746032848	96.268404134087	570.742799743573	800.328320840393	36.332437027686	609.729231926034	1008.554078159178	43.602158966608	598.426270056749	932.803742255845	61.058306622282	386.771216456327	1002.040168607184	62.175167257971	303.021721354201	1082.049541117758	130.379647652347	322.741342109642	1209.064657617970	88.454625788190	287.793705779980	758.685604961818	1094.658779239619	246.357552194606	753.563183115388	835.230776141616	246.626649433475	1060.202742257985	1108.479359863172	781.440558079644	1306.882215836826	1058.876900338027	725.208364481143	
